# xmcd
#
# Track frame offsets: 
#        150
#        13860
#        31933
#        44610
#        58363
#        80180
#        99086
#        115825
#
# Disc length: 1814 seconds
#
# Revision: 0
# Processed by: cddbd v1.5.2PL0 Copyright (c) Steve Scherf et al.
# Submitted via: ExactAudioCopy v1.3
#
DISCID=67071408
DTITLE=The Nem Project - The Nem Project
DYEAR=2019
DGENRE=Blues
TTITLE0=Back Up Against The Wall
TTITLE1=Delta Fills In The Rain
TTITLE2=Don't Bother Tryin'
TTITLE3=Bar Room Days
TTITLE4=Hidden Tears
TTITLE5=100 Miles Away
TTITLE6=Sista Sue
TTITLE7=That's What Grown Men Do
EXTD=
EXTT0=
EXTT1=
EXTT2=
EXTT3=
EXTT4=
EXTT5=
EXTT6=
EXTT7=
PLAYORDER=
